# xmcd CD database file
#
# Track frame offsets:
#	225
#	15963
#	32786
#	45361
#	59914
#	71204
#	85407
#	102204
#	112676
#	132531
#	149160
#	166222
#	184780
#
# Disc length: 2535 seconds
#
# Revision: 1
# Processed by: cddbd v1.5.1PL0 Copyright (c) Steve Scherf et al.
# Submitted via: CDex 1.51
#
DISCID=b809e40d
DTITLE=Borderline - No more borders
DYEAR=1995
DGENRE=Country
TTITLE0=Marie
TTITLE1=Is it wrong
TTITLE2=Rosalie
TTITLE3=The honky-tonk downstairs
TTITLE4=Somehow special
TTITLE5=Rumbo a Roma
TTITLE6=Where am I gonna live
TTITLE7=El puente roto
TTITLE8=Isn´t that so
TTITLE9=Bailando
TTITLE10=Turn back the clock
TTITLE11=What about Cathy
TTITLE12=Across the borderline (bonus)
EXTD=YEAR: 1995
EXTT0=
EXTT1=
EXTT2=
EXTT3=
EXTT4=
EXTT5=
EXTT6=
EXTT7=
EXTT8=
EXTT9=
EXTT10=
EXTT11=
EXTT12=
PLAYORDER=
